<svg width="58" height="58" viewBox="0 0 58 58" fill="none" xmlns="http://www.w3.org/2000/svg">
    <path d="M55.3636 42.1818H2.63636C1.93716 42.1818 1.26659 42.4596 0.772173 42.954C0.277759 43.4484 0 44.119 0 44.8182C0 45.5174 0.277759 46.188 0.772173 46.6824C1.26659 47.1768 1.93716 47.4545 2.63636 47.4545H55.3636C56.0628 47.4545 56.7334 47.1768 57.2278 46.6824C57.7222 46.188 58 45.5174 58 44.8182C58 44.119 57.7222 43.4484 57.2278 42.954C56.7334 42.4596 56.0628 42.1818 55.3636 42.1818ZM55.3636 52.7273H2.63636C1.93716 52.7273 1.26659 53.005 0.772173 53.4994C0.277759 53.9939 0 54.6644 0 55.3636C0 56.0628 0.277759 56.7334 0.772173 57.2278C1.26659 57.7222 1.93716 58 2.63636 58H55.3636C56.0628 58 56.7334 57.7222 57.2278 57.2278C57.7222 56.7334 58 56.0628 58 55.3636C58 54.6644 57.7222 53.9939 57.2278 53.4994C56.7334 53.005 56.0628 52.7273 55.3636 52.7273ZM13.1818 15.8182C12.6604 15.8182 12.1507 15.9728 11.7171 16.2625C11.2836 16.5522 10.9457 16.9639 10.7461 17.4457C10.5466 17.9274 10.4944 18.4575 10.5961 18.9689C10.6978 19.4803 10.9489 19.95 11.3176 20.3187C11.6863 20.6874 12.1561 20.9385 12.6675 21.0403C13.1789 21.142 13.709 21.0898 14.1907 20.8902C14.6724 20.6907 15.0842 20.3528 15.3739 19.9192C15.6636 19.4857 15.8182 18.976 15.8182 18.4545C15.8182 17.7553 15.5404 17.0848 15.046 16.5904C14.5516 16.0959 13.881 15.8182 13.1818 15.8182ZM50.0909 0H7.90909C5.81147 0 3.79976 0.833277 2.31652 2.31652C0.833277 3.79976 0 5.81147 0 7.90909V29C0 31.0976 0.833277 33.1093 2.31652 34.5926C3.79976 36.0758 5.81147 36.9091 7.90909 36.9091H50.0909C52.1885 36.9091 54.2002 36.0758 55.6835 34.5926C57.1667 33.1093 58 31.0976 58 29V7.90909C58 5.81147 57.1667 3.79976 55.6835 2.31652C54.2002 0.833277 52.1885 0 50.0909 0ZM52.7273 29C52.7273 29.6992 52.4495 30.3698 51.9551 30.8642C51.4607 31.3586 50.7901 31.6364 50.0909 31.6364H7.90909C7.20988 31.6364 6.53931 31.3586 6.0449 30.8642C5.55049 30.3698 5.27273 29.6992 5.27273 29V7.90909C5.27273 7.20988 5.55049 6.53931 6.0449 6.0449C6.53931 5.55049 7.20988 5.27273 7.90909 5.27273H50.0909C50.7901 5.27273 51.4607 5.55049 51.9551 6.0449C52.4495 6.53931 52.7273 7.20988 52.7273 7.90909V29ZM29 10.5455C27.4357 10.5455 25.9066 11.0093 24.6059 11.8784C23.3053 12.7474 22.2916 13.9827 21.693 15.4279C21.0943 16.8731 20.9377 18.4633 21.2429 19.9975C21.5481 21.5317 22.3013 22.941 23.4074 24.0471C24.5135 25.1532 25.9228 25.9065 27.457 26.2117C28.9912 26.5168 30.5815 26.3602 32.0267 25.7616C33.4719 25.163 34.7071 24.1492 35.5762 22.8486C36.4452 21.548 36.9091 20.0188 36.9091 18.4545C36.9091 16.3569 36.0758 14.3452 34.5926 12.862C33.1093 11.3787 31.0976 10.5455 29 10.5455ZM29 21.0909C28.4786 21.0909 27.9689 20.9363 27.5353 20.6466C27.1018 20.3569 26.7639 19.9452 26.5643 19.4634C26.3648 18.9817 26.3126 18.4516 26.4143 17.9402C26.516 17.4288 26.7671 16.9591 27.1358 16.5904C27.5045 16.2217 27.9743 15.9706 28.4857 15.8688C28.9971 15.7671 29.5272 15.8193 30.0089 16.0189C30.4906 16.2184 30.9024 16.5563 31.1921 16.9899C31.4817 17.4234 31.6364 17.9331 31.6364 18.4545C31.6364 19.1538 31.3586 19.8243 30.8642 20.3187C30.3698 20.8132 29.6992 21.0909 29 21.0909ZM44.8182 15.8182C44.2968 15.8182 43.787 15.9728 43.3535 16.2625C42.9199 16.5522 42.582 16.9639 42.3825 17.4457C42.183 17.9274 42.1308 18.4575 42.2325 18.9689C42.3342 19.4803 42.5853 19.95 42.954 20.3187C43.3227 20.6874 43.7924 20.9385 44.3039 21.0403C44.8153 21.142 45.3453 21.0898 45.8271 20.8902C46.3088 20.6907 46.7206 20.3528 47.0102 19.9192C47.2999 19.4857 47.4545 18.976 47.4545 18.4545C47.4545 17.7553 47.1768 17.0848 46.6824 16.5904C46.188 16.0959 45.5174 15.8182 44.8182 15.8182Z" fill="#666666"/>
</svg>
