<svg width="61" height="61" viewBox="0 0 61 61" fill="none" xmlns="http://www.w3.org/2000/svg">
    <path fill-rule="evenodd" clip-rule="evenodd" d="M30.5135 0C13.7062 0 2.22037e-05 13.6846 0 30.4919C-4.13857e-05 47.2993 13.7061 61 30.5135 61C47.3209 61 61 47.2993 61 30.4919C61 13.6846 47.3209 0 30.5135 0ZM30.5135 5.54398C44.3247 5.54398 55.456 16.6807 55.456 30.4919C55.4561 44.303 44.3247 55.456 30.5135 55.456C16.7023 55.456 5.54394 44.303 5.54398 30.4919C5.544 16.6807 16.7024 5.54398 30.5135 5.54398ZM30.4702 11.0501C30.1039 11.0536 29.7419 11.1297 29.4052 11.274C29.0684 11.4183 28.7636 11.6279 28.5084 11.8907C28.2532 12.1535 28.0525 12.4643 27.9181 12.8051C27.7837 13.1459 27.7182 13.5099 27.7253 13.8762V30.4919C27.7268 30.8566 27.8003 31.2175 27.9415 31.5538C28.0827 31.8901 28.2889 32.1953 28.5482 32.4518L39.6362 43.5451C39.8924 43.8104 40.1989 44.0219 40.5378 44.1672C40.8767 44.3125 41.2412 44.3887 41.61 44.3914C41.9788 44.3941 42.3443 44.3232 42.6853 44.1829C43.0264 44.0425 43.3359 43.8356 43.596 43.5741C43.856 43.3126 44.0613 43.0019 44.1997 42.6601C44.3382 42.3183 44.4071 41.9524 44.4023 41.5836C44.3976 41.2149 44.3193 40.8508 44.1721 40.5127C44.025 40.1746 43.8118 39.8692 43.5451 39.6145L33.2747 29.3441V13.8762C33.2819 13.5049 33.2145 13.1359 33.0764 12.7912C32.9383 12.4465 32.7324 12.133 32.4708 11.8694C32.2092 11.6058 31.8973 11.3974 31.5537 11.2567C31.21 11.1159 30.8416 11.0457 30.4702 11.0501Z" fill="#666666"/>
</svg>
