<svg width="54" height="54" viewBox="0 0 54 54" fill="none" xmlns="http://www.w3.org/2000/svg">
    <path d="M38.0965 16.9469C38.976 16.0674 40.4026 16.0674 41.2821 16.9469C42.1616 17.8267 42.1616 19.2533 41.2821 20.1329L24.3634 37.0522C23.4836 37.9317 22.057 37.9317 21.1775 37.0522L12.7179 28.5925C11.8384 27.713 11.8384 26.2864 12.7179 25.4069C13.5977 24.5271 15.0243 24.5271 15.9038 25.4069L22.7705 32.2736L38.0965 16.9469ZM26.9998 0C34.4546 0 41.2053 3.02258 46.0914 7.90863C50.9774 12.7944 54 19.5454 54 26.9998C54 34.4555 50.9777 41.2053 46.0914 46.0914C41.2053 50.9774 34.4546 54 26.9998 54C19.5445 54 12.7944 50.9777 7.90863 46.0914C3.02198 41.2053 0 34.4555 0 26.9998C0 19.5454 3.02258 12.7944 7.90863 7.90863C12.7944 3.02198 19.5445 0 26.9998 0ZM42.9058 11.0942C38.8355 7.02426 33.2117 4.50655 26.9998 4.50655C20.7877 4.50655 15.1639 7.02426 11.0942 11.0942C7.02426 15.1642 4.50655 20.7883 4.50655 26.9998C4.50655 33.2123 7.02426 38.8361 11.0942 42.9058C15.1639 46.9757 20.7877 49.4931 26.9998 49.4931C33.2117 49.4931 38.8355 46.9757 42.9058 42.9058C46.9757 38.8361 49.4931 33.2123 49.4931 26.9998C49.4931 20.7883 46.9757 15.1642 42.9058 11.0942Z" fill="#666666"/>
</svg>
