<svg width="44" height="44" viewBox="0 0 44 44" fill="none" xmlns="http://www.w3.org/2000/svg">
    <path d="M22 0C9.9 0 0 9.9 0 22C0 34.1 9.9 44 22 44C34.1 44 44 34.1 44 22C44 9.9 34.1 0 22 0ZM22 39.6C12.32 39.6 4.4 31.68 4.4 22C4.4 12.32 12.32 4.4 22 4.4C31.68 4.4 39.6 12.32 39.6 22C39.6 31.68 31.68 39.6 22 39.6Z" fill="#59B372"/>
    <path d="M22.3237 12H22.0935C19.7913 12 17.7193 13.0448 16.5682 14.7164C15.6473 15.7612 15.8776 17.0149 17.0287 17.6418C18.1797 18.2687 19.5611 18.0597 20.2517 17.0149C20.7121 16.3881 21.4028 16.1791 22.0935 16.1791H22.3237C23.4748 16.1791 24.3956 17.0149 24.3956 18.0597C24.3956 18.8955 23.705 19.7313 23.0143 19.9403L21.4028 20.3582C20.4819 20.5672 19.7913 21.403 19.7913 22.2388V23.9104C19.7913 25.1642 20.7121 26 22.0935 26C23.2445 26 24.3956 25.1642 24.3956 24.1194C27.1583 23.2836 29 20.9851 29 18.2687C29 14.9254 26.0072 12 22.3237 12Z" fill="#59B372"/>
    <path d="M22 33C23.1046 33 24 32.1046 24 31C24 29.8954 23.1046 29 22 29C20.8954 29 20 29.8954 20 31C20 32.1046 20.8954 33 22 33Z" fill="#59B372"/>
</svg>
